<?xml version="1.0" encoding="UTF-8"?>
<svg width="60px" height="60px" viewBox="0 0 60 60" version="1.1" xmlns="http://www.w3.org/2000/svg" xmlns:xlink="http://www.w3.org/1999/xlink">
    <title>api-essentials-icon</title>
    <g id="api-essentials-icon" stroke="none" stroke-width="1" fill="none" fill-rule="evenodd">
        <g id="Group" fill="#519DFF" fill-rule="nonzero">
            <path d="M58.828125,23.9437866 L54.7187805,23.9437866 C54.1040039,21.4224244 53.1115723,19.028778 51.7593384,16.8054199 L54.6670533,13.8977051 C55.124817,13.4399414 55.124817,12.6979065 54.6670533,12.2406006 L47.7598571,5.33294672 C47.3020935,4.87518305 46.5600586,4.87518305 46.1022949,5.33294672 L43.1945801,8.24066156 C40.971222,6.88797 38.5771179,5.89553836 36.0562134,5.28076172 L36.0562134,1.171875 C36.0562134,0.524597109 35.5316162,0 34.8843384,0 L25.1156616,0 C24.4683838,0 23.9437866,0.524597109 23.9437866,1.171875 L23.9437866,5.28076172 C21.4228821,5.89553836 19.028778,6.88797 16.8054199,8.24066156 L13.8977051,5.33294672 C13.4399414,4.87518305 12.6983643,4.87518305 12.2406006,5.33294672 L5.33294672,12.2406006 C4.87518305,12.6979065 4.87518305,13.4399414 5.33294672,13.8977051 L8.24020383,16.8049622 C6.88797,19.0274048 5.89599609,21.4215088 5.28076172,23.9437866 L1.171875,23.9437866 C0.524597109,23.9437866 0,24.4683838 0,25.1156616 L0,34.8843384 C0,35.5316162 0.524597109,36.0562134 1.171875,36.0562134 L5.28121945,36.0562134 C5.89599609,38.5771179 6.88842773,40.9707642 8.24066156,43.1945801 L5.33294672,46.1018372 C5.11322016,46.3215637 4.98962402,46.6200257 4.98962402,46.9308471 C4.98962402,47.2416687 5.11322016,47.5396729 5.33294672,47.7593994 L12.2406006,54.6665954 C12.6979065,55.1243591 13.4399414,55.1243591 13.8977051,54.6665954 L16.8054199,51.7593384 C19.028778,53.11203 21.4224244,54.1044616 23.9437866,54.7192383 L23.9437866,58.828125 C23.9437866,59.4754029 24.4683838,60 25.1156616,60 L34.8843384,60 C35.5311585,60 36.0562134,59.4754029 36.0562134,58.828125 L36.0562134,54.7192383 C38.5771179,54.1044616 40.971222,53.11203 43.1945801,51.7593384 L46.1022949,54.6670533 C46.5596009,55.1243591 47.3016357,55.1243591 47.7593994,54.6670533 L54.6670533,47.7593994 C55.1243591,47.3016357 55.1243591,46.5596009 54.6670533,46.1022949 L51.7597962,43.1950378 C53.1115723,40.9721374 54.1040039,38.5780335 54.7187805,36.0562134 L58.828125,36.0562134 C59.4754029,36.0562134 60,35.5316162 60,34.8843384 L60,25.1156616 C60,24.4683838 59.4754029,23.9437866 58.828125,23.9437866 L58.828125,23.9437866 Z M57.65625,33.7124634 L53.7808228,33.7124634 C53.2241822,33.7124634 52.743988,34.1043091 52.6327514,34.6499634 C52.0431518,37.5357056 50.9184265,40.2488708 49.2901611,42.714386 C48.9830017,43.1790162 49.0452575,43.795166 49.4389343,44.1888428 L52.1809388,46.9308471 L46.9308471,52.1809387 L44.188385,49.4389343 C43.7947083,49.0452575 43.1785583,48.9830017 42.7139283,49.2897034 C40.2474975,50.9188842 37.5343323,52.0436096 34.6499634,52.6327514 C34.1043091,52.7444459 33.7124634,53.2241822 33.7124634,53.7808228 L33.7124634,57.65625 L26.2875366,57.65625 L26.2875366,53.7812805 C26.2875366,53.2241822 25.8956909,52.7444459 25.3500366,52.6332093 C22.46521,52.0436096 19.7520446,50.9188842 17.2860717,49.2897034 C16.8214417,48.9825439 16.2052917,49.0452575 15.811615,49.4389343 L13.0691529,52.1809387 L7.81906125,46.9308471 L10.5610657,44.188385 C10.9547425,43.7947083 11.0174561,43.1785583 10.7107545,42.7139283 C9.08157352,40.2474975 7.9568482,37.53479 7.36770633,34.6499634 C7.25646973,34.1043091 6.77627566,33.7124634 6.21963504,33.7124634 L2.34375,33.7124634 L2.34375,26.2875366 L6.21917719,26.2875366 C6.77581781,26.2875366 7.25601199,25.8956909 7.36724859,25.3500366 C7.9568482,22.4638366 9.08157352,19.7506713 10.7098389,17.2860717 C11.0169983,16.8214417 10.9547425,16.204834 10.560608,15.8111572 L7.81860352,13.0691529 L13.0691529,7.81906125 L15.811615,10.5610657 C16.2052917,10.9552002 16.8214417,11.0174561 17.2860717,10.7102966 C19.7525025,9.08111578 22.4656677,7.95639035 25.3500366,7.36724859 C25.8956909,7.25555414 26.2875366,6.77581781 26.2875366,6.21917719 L26.2875366,2.34375 L33.7124634,2.34375 L33.7124634,6.21871945 C33.7124634,6.77581781 34.1043091,7.25555414 34.6495056,7.36679074 C37.5343323,7.95639035 40.2474975,9.08111578 42.7134704,10.7102966 C43.1781006,11.0169983 43.7947083,10.9547425 44.188385,10.5610657 L46.9308471,7.81860352 L52.1809387,13.0691529 L49.4384766,15.811615 C49.0447998,16.2052917 48.9820862,16.8214417 49.2892455,17.2860717 C50.9179688,19.7520446 52.0426941,22.46521 52.6318359,25.3500366 C52.7435303,25.8956909 53.2232666,26.2875366 53.780365,26.2875366 L57.65625,26.2875366 L57.65625,33.7124634 Z" id="Shape"></path>
            <path d="M18.9683532,30 C18.9683532,23.9172363 23.9172363,18.9683532 30,18.9683532 C31.4341736,18.9683532 32.8298951,19.2402649 34.1482545,19.7758484 C34.7474671,20.0193786 35.4313659,19.7305298 35.6748962,19.1313171 C35.9184265,18.5316468 35.6300354,17.8477478 35.030365,17.6042175 C33.430481,16.9541931 31.7381286,16.6246032 30,16.6246032 C22.6249695,16.6246032 16.6246032,22.6249695 16.6246032,30 C16.6246032,31.6662598 16.9281006,33.2936096 17.5268555,34.8362732 C17.7072143,35.3004456 18.1503295,35.5847168 18.6195374,35.5847168 C18.7605286,35.5847168 18.9038086,35.559082 19.0434265,35.5050659 C19.6467591,35.2706909 19.9461364,34.5918274 19.7117614,33.9884948 C19.21875,32.7168274 18.9683532,31.3751221 18.9683532,30 Z" id="Path"></path>
            <path d="M40.7121277,24.0353393 C40.1193237,24.2948913 39.8492432,24.9861145 40.1092529,25.5789185 C40.7212829,26.9760131 41.0311889,28.4632874 41.0311889,30 C41.0311889,36.0827637 36.0827637,41.0316468 30,41.0316468 C28.4028626,41.0316468 26.8624877,40.6974792 25.4214478,40.0392151 C24.8327637,39.7700501 24.1378784,40.0296021 23.8687134,40.6182861 C23.5995483,41.2069702 23.8591003,41.9018555 24.4473267,42.1710205 C26.1964417,42.9702759 28.0645752,43.3753968 29.9995423,43.3753968 C37.3750305,43.3753968 43.3749389,37.3750305 43.3749389,30 C43.3749389,28.1378174 42.9981995,26.3337708 42.2557068,24.6386719 C41.9961548,24.0454102 41.3049316,23.7757874 40.7121277,24.0353393 L40.7121277,24.0353393 Z" id="Path"></path>
            <path d="M21.1244202,37.2033691 C20.4789734,37.2033691 19.9525452,37.7297974 19.9525452,38.3752441 C19.9525452,39.0206909 20.4789734,39.5471191 21.1244202,39.5471191 C21.7698669,39.5471191 22.2962952,39.0206909 22.2962952,38.3752441 C22.2962952,37.7297974 21.7698669,37.2033691 21.1244202,37.2033691 Z" id="Path"></path>
            <path d="M38.5125732,22.4276733 C39.1580201,22.4276733 39.6844482,21.9012451 39.6844482,21.2557983 C39.6844482,20.6103516 39.1580201,20.0839233 38.5125732,20.0839233 C37.8671264,20.0839233 37.3406982,20.6103516 37.3406982,21.2557983 C37.3406982,21.9012451 37.8671264,22.4276733 38.5125732,22.4276733 Z" id="Path"></path>
        </g>
    </g>
</svg>