<?xml version="1.0" encoding="UTF-8"?>
<svg width="60px" height="60px" viewBox="0 0 60 60" version="1.1" xmlns="http://www.w3.org/2000/svg" xmlns:xlink="http://www.w3.org/1999/xlink">
    <title>getting-started-icon</title>
    <g id="getting-started-icon" stroke="none" stroke-width="1" fill="none" fill-rule="evenodd">
        <g id="Group-4" fill="#519DFF" fill-rule="nonzero">
            <path d="M42.2929687,22.2930469 C41.9020312,22.6841016 41.9020312,23.3160937 42.2929687,23.7070312 L44.5859766,26.0000391 L39,26.0000391 C38.4469922,26.0000391 38.0000391,26.4480469 38.0000391,27 C38.0000391,27.5519531 38.4469922,27.9999609 39,27.9999609 L44.5859766,27.9999609 L42.2929687,30.2929688 C41.9020312,30.6840234 41.9020312,31.3160156 42.2929687,31.7069531 C42.4879687,31.9019531 42.7440234,31.9999219 42.9999609,31.9999219 C43.2560156,31.9999219 43.5119531,31.9019531 43.7069531,31.7069531 L47.7059766,27.7079297 C47.7990234,27.6148828 47.8720312,27.5049609 47.9230078,27.3819141 C48.0240234,27.1379297 48.0240234,26.8619531 47.9230078,26.6179687 C47.8720312,26.4949219 47.7990234,26.385 47.7059766,26.2919531 L43.7069531,22.2929297 C43.3160156,21.9019922 42.6840234,21.9019922 42.2929687,22.2930469 Z" id="Path"></path>
            <path d="M24.9999609,14.0000391 L45,14.0000391 C45.5530078,14.0000391 45.9999609,13.5520313 45.9999609,13.0000781 C45.9999609,12.448125 45.5530078,12 45,12 L24.9999609,12 C24.4469531,12 24,12.4480078 24,12.9999609 C24,13.5519141 24.4469531,14.0000391 24.9999609,14.0000391 Z" id="Path"></path>
            <path d="M23.0000391,33.9999609 L31.0000781,33.9999609 C31.5530859,33.9999609 32.0000391,33.5519531 32.0000391,33 C32.0000391,32.4480469 31.5530859,32.0000391 31.0000781,32.0000391 L23.0000391,32.0000391 C22.4470312,32.0000391 22.0000781,32.4480469 22.0000781,33 C22.0000781,33.5519531 22.4470312,33.9999609 23.0000391,33.9999609 Z" id="Path"></path>
            <path d="M23.0000391,21.9999609 L29.0000391,21.9999609 C29.5530469,21.9999609 30,21.5519531 30,21 C30,20.4480469 29.5530469,20.0000391 29.0000391,20.0000391 L23.0000391,20.0000391 C22.4470313,20.0000391 22.0000781,20.4480469 22.0000781,21 C22.0000781,21.5519531 22.4470313,21.9999609 23.0000391,21.9999609 Z" id="Path"></path>
            <path d="M23.0000391,27.9999609 L33,27.9999609 C33.5530078,27.9999609 33.9999609,27.5519531 33.9999609,27 C33.9999609,26.4480469 33.5530078,26.0000391 33,26.0000391 L23.0000391,26.0000391 C22.4470312,26.0000391 22.0000781,26.4480469 22.0000781,27 C22.0000781,27.5519531 22.4470312,27.9999609 23.0000391,27.9999609 Z" id="Path"></path>
            <path d="M39,57.9999609 L36.9999609,57.9999609 C36.4469531,57.9999609 36,58.4479687 36,58.9999219 C36,59.551875 36.4469531,59.9998828 36.9999609,59.9998828 L39,59.9998828 C39.5530078,59.9998828 39.9999609,59.551875 39.9999609,58.9999219 C39.9999609,58.4479687 39.5530078,57.9999609 39,57.9999609 Z" id="Path"></path>
            <path d="M59.0000391,57.9999609 L42.9999609,57.9999609 C42.4469531,57.9999609 42,58.4479687 42,58.9999219 C42,59.551875 42.4469531,59.9998828 42.9999609,59.9998828 L58.9999219,59.9998828 C59.5529297,59.9998828 59.9998828,59.551875 59.9998828,58.9999219 C59.9998828,58.4479687 59.5530469,57.9999609 59.0000391,57.9999609 Z" id="Path"></path>
            <path d="M30.9999609,57.9999609 L21,57.9999609 C20.4469922,57.9999609 20.0000391,58.4479687 20.0000391,58.9999219 C20.0000391,59.551875 20.4469922,60 21,60 L30.9999609,60 C31.5529688,60 31.9999219,59.5519922 31.9999219,59.0000391 C31.9999219,58.4480859 31.5529688,57.9999609 30.9999609,57.9999609 Z" id="Path"></path>
            <path d="M18.9999609,12 C16.2430078,12 13.9999219,14.2429688 13.9999219,17.0000391 L13.9999219,37.0000781 C13.9999219,39.7570313 16.2428906,42.0001172 18.9999609,42.0001172 L51,42.0001172 C53.7569531,42.0001172 56.0000391,39.7571484 56.0000391,37.0000781 L56.0000391,17.0000391 C56.0000391,14.2430859 53.7570703,12 51,12 L50.0000391,12 L50.0000391,8.00003906 L59.0000391,8.00003906 C59.5530469,8.00003906 60,7.55203125 60,7.00007812 C60,6.448125 59.5530469,6.00011719 59.0000391,6.00011719 L9.99996094,6.00011719 L9.99996094,3 C9.99996094,1.34601563 8.65394531,0 6.99996094,0 C5.34597656,0 3.99996094,1.34601563 3.99996094,3 L3.99996094,57.9999609 L0.999960938,57.9999609 C0.446953125,57.9999609 0,58.4479688 0,58.9999219 C0,59.551875 0.446953125,60 0.999960938,60 L15,60 C15.5530078,60 15.9999609,59.5519922 15.9999609,59.0000391 C15.9999609,58.4480859 15.5530078,58.0000781 15,58.0000781 L9.99996094,58.0000781 L9.99996094,11.0000391 C9.99996094,10.4480859 9.55300781,10.0000781 9,10.0000781 C8.44699219,10.0000781 8.00003906,10.4480859 8.00003906,11.0000391 L8.00003906,58.0000781 L6,58.0000781 L6,3 C6,2.44898438 6.44800781,2.00003906 6.99996094,2.00003906 C7.55191406,2.00003906 7.99992188,2.44898437 7.99992188,3 L7.99992188,6.99996094 C7.99992188,7.55191406 8.446875,7.99992188 8.99988281,7.99992188 L19.9999219,7.99992188 L19.9999219,12 L18.9999609,12 Z M21,14.0000391 C21.5530078,14.0000391 21.9999609,13.5520313 21.9999609,13.0000781 L21.9999609,8.00003906 L48,8.00003906 L48,13.0000781 C48,13.5520312 48.4469531,14.0000391 48.9999609,14.0000391 L51,14.0000391 C52.6539844,14.0000391 54,15.3460547 54,17.0000391 L54,37.0000781 C54,38.6540625 52.6539844,40.0000781 51,40.0000781 L18.9999609,40.0000781 C17.3459766,40.0000781 15.9999609,38.6540625 15.9999609,37.0000781 L15.9999609,17.0000391 C15.9999609,15.3460547 17.3459766,14.0000391 18.9999609,14.0000391 L21,14.0000391 Z" id="Shape"></path>
        </g>
    </g>
</svg>