<?xml version="1.0" encoding="UTF-8"?>
<svg width="60px" height="60px" viewBox="0 0 60 60" version="1.1" xmlns="http://www.w3.org/2000/svg" xmlns:xlink="http://www.w3.org/1999/xlink">
    <title>manage-account-icon</title>
    <g id="manage-account-icon" stroke="none" stroke-width="1" fill="none" fill-rule="evenodd">
        <g id="Group-2" fill="#519DFF" fill-rule="nonzero">
            <path d="M54.0598828,12.0772266 C53.7662109,11.6835938 53.2089844,11.6025 52.8152344,11.8962891 C52.4216016,12.1899609 52.3405078,12.7471875 52.6342969,13.1409375 C56.289375,18.0398437 58.2213281,23.8696875 58.2213281,30.0002344 C58.2213281,37.5383203 55.2857812,44.6253516 49.9555078,49.955625 C44.6252344,55.2858984 37.5382031,58.2213281 30,58.2213281 C22.4619141,58.2213281 15.3748828,55.2857812 10.0446094,49.9555078 C4.71433594,44.6252344 1.77867188,37.5380859 1.77867188,30 C1.77867188,22.4619141 4.71421875,15.3748828 10.0444922,10.0446094 C15.3747656,4.71433594 22.4617969,1.77867188 30,1.77867188 C37.3904297,1.77867188 44.3775,4.61566406 49.674375,9.76722656 C50.0264063,10.1096484 50.5894922,10.1019141 50.9319141,9.74976562 C51.2743359,9.39773437 51.2664844,8.83464844 50.9144531,8.49222656 C45.2837109,3.0159375 37.85625,0 30,0 C21.9867188,0 14.4530859,3.12058594 8.78683594,8.78683594 C3.12058594,14.4530859 0,21.9867188 0,30 C0,38.0132812 3.12058594,45.5469141 8.78683594,51.2131641 C14.4530859,56.8794141 21.9867188,60 30,60 C38.0132812,60 45.5469141,56.8794141 51.2131641,51.2131641 C56.8794141,45.5469141 60,38.0132812 60,30 C60,23.4833203 57.9459375,17.285625 54.0598828,12.0772266 Z" id="Path"></path>
            <path d="M29.9598047,13.8605859 C25.7375391,13.8605859 22.3025391,17.2955859 22.3025391,21.5178516 C22.3025391,25.7401172 25.7375391,29.1751172 29.9598047,29.1751172 C34.1820703,29.1751172 37.6170703,25.7401172 37.6170703,21.5178516 C37.6170703,17.2955859 34.1820703,13.8605859 29.9598047,13.8605859 Z M29.9598047,27.3964453 C26.7182813,27.3964453 24.0812109,24.759375 24.0812109,21.5178516 C24.0812109,18.2763281 26.7182813,15.6392578 29.9598047,15.6392578 C33.2012109,15.6392578 35.8383984,18.2763281 35.8383984,21.5178516 C35.8383984,24.759375 33.2013281,27.3964453 29.9598047,27.3964453 Z" id="Shape"></path>
            <path d="M36.5029687,30.8954297 L22.8053906,30.8954297 C20.7808594,30.8954297 18.7958203,31.5890625 17.2157812,32.8485938 C16.8317578,33.1548047 16.7685937,33.7142578 17.0746875,34.0983984 C17.3807812,34.4823047 17.9402344,34.5454688 18.3244922,34.2394922 C19.6091016,33.2153906 21.1585547,32.6742188 22.8053906,32.6742188 L36.5029687,32.6742188 C40.4702344,32.6742188 43.6978125,35.9017969 43.6978125,39.8690625 L43.6978125,44.2334766 C43.6978125,44.2429688 43.6900781,44.2507031 43.6804687,44.2507031 L39.6902344,44.2507031 L39.6902344,40.0318359 C39.6902344,39.5407031 39.2920312,39.1425 38.8008984,39.1425 C38.3097656,39.1425 37.9115625,39.5407031 37.9115625,40.0318359 L37.9115625,44.2507031 L21.5961328,44.2507031 L21.5961328,40.0318359 C21.5961328,39.5407031 21.1979297,39.1425 20.7067969,39.1425 C20.2156641,39.1425 19.8174609,39.5407031 19.8174609,40.0318359 L19.8174609,44.2507031 L15.6277734,44.2507031 C15.6182812,44.2507031 15.6105469,44.2429688 15.6105469,44.2334766 L15.6105469,39.8690625 C15.6105469,38.6506641 15.9202734,37.4472656 16.5064453,36.3889453 C16.7444531,35.9592188 16.5890625,35.4180469 16.1593359,35.1800391 C15.7296094,34.9420313 15.1884375,35.0974219 14.9504297,35.5271484 C14.2185937,36.8485547 13.8317578,38.3499609 13.8317578,39.8689453 L13.8317578,44.2333594 C13.8317578,45.2235938 14.6374219,46.0292578 15.6276562,46.0292578 L43.6804687,46.0292578 C44.6708203,46.0292578 45.4764844,45.2235938 45.4764844,44.2333594 L45.4764844,39.8689453 C45.4764844,34.9209375 41.4509766,30.8954297 36.5029687,30.8954297 Z" id="Path"></path>
        </g>
    </g>
</svg>