<?xml version="1.0" encoding="UTF-8"?>
<svg width="60px" height="60px" viewBox="0 0 60 60" version="1.1" xmlns="http://www.w3.org/2000/svg" xmlns:xlink="http://www.w3.org/1999/xlink">
    <title>support-icon</title>
    <g id="support-icon" stroke="none" stroke-width="1" fill="none" fill-rule="evenodd">
        <g id="Group-5" fill="#519DFF" fill-rule="nonzero">
            <path d="M48.2813011,15.9375 C48.2813011,16.58432 48.8063561,17.109375 49.4531761,17.109375 C50.0999961,17.109375 50.6250511,16.58432 50.6250511,15.9375 C50.6250511,15.29068 50.0999961,14.765625 49.4531761,14.765625 C48.8063561,14.765625 48.2813011,15.29068 48.2813011,15.9375 Z" id="Path"></path>
            <path d="M52.9688011,30 C52.9688011,31.5010071 52.8181969,32.9992676 52.521566,34.453125 C52.3920189,35.0871277 52.8012595,35.7060241 53.4352623,35.8355713 C53.5144554,35.8520508 53.5931908,35.8598327 53.6710106,35.8598327 C54.2162071,35.8598327 54.7046409,35.4766846 54.8181663,34.921875 C55.1463829,33.3137512 55.3125511,31.6580201 55.3125511,30 C55.3125511,26.3099671 54.5123802,22.7590943 52.9335533,19.4458008 C52.655233,18.8616943 51.9562279,18.6135865 51.3716637,18.8919068 C50.7870994,19.1702271 50.5394493,19.86969 50.8177696,20.4542542 C52.2450768,23.4498596 52.9688011,26.6615296 52.9688011,30 L52.9688011,30 Z" id="Path"></path>
            <path d="M35.8594261,40.546875 L34.6875511,40.546875 L34.6875511,25.3125 C34.6875511,24.6652221 34.162954,24.140625 33.5156761,24.140625 L24.1406761,24.140625 C23.4933982,24.140625 22.9688011,24.6652221 22.9688011,25.3125 L22.9688011,30 C22.9688011,30.6472779 23.4933982,31.171875 24.1406761,31.171875 L25.3125511,31.171875 L25.3125511,40.546875 L24.1406761,40.546875 C23.4933982,40.546875 22.9688011,41.0714721 22.9688011,41.71875 L22.9688011,46.40625 C22.9688011,47.0535279 23.4933982,47.578125 24.1406761,47.578125 L35.8594261,47.578125 C36.506704,47.578125 37.0313011,47.0535279 37.0313011,46.40625 L37.0313011,41.71875 C37.0313011,41.0714721 36.506704,40.546875 35.8594261,40.546875 Z M34.6875511,45.234375 L25.3125511,45.234375 L25.3125511,42.890625 L26.4844261,42.890625 C27.131704,42.890625 27.6563011,42.3660279 27.6563011,41.71875 L27.6563011,30 C27.6563011,29.3527221 27.131704,28.828125 26.4844261,28.828125 L25.3125511,28.828125 L25.3125511,26.484375 L32.3438011,26.484375 L32.3438011,41.71875 C32.3438011,42.3660279 32.8688561,42.890625 33.5156761,42.890625 L34.6875511,42.890625 L34.6875511,45.234375 Z" id="Shape"></path>
            <path d="M30.0000511,21.796875 C32.5845849,21.796875 34.6875511,19.6939087 34.6875511,17.109375 C34.6875511,14.5248412 32.5845849,12.421875 30.0000511,12.421875 C27.4155174,12.421875 25.3125511,14.5248412 25.3125511,17.109375 C25.3125511,19.6939087 27.4155174,21.796875 30.0000511,21.796875 Z M30.0000511,14.765625 C31.292318,14.765625 32.3438011,15.8171081 32.3438011,17.109375 C32.3438011,18.4016419 31.292318,19.453125 30.0000511,19.453125 C28.7077842,19.453125 27.6563011,18.4016419 27.6563011,17.109375 C27.6563011,15.8171081 28.7077842,14.765625 30.0000511,14.765625 Z" id="Shape"></path>
            <path d="M30.0000511,0 C13.8309227,0 -2.66453526e-14,13.804779 -2.66453526e-14,30 C-2.66453526e-14,35.5320739 1.58528673,41.4152527 4.25816884,45.8651733 L0.0600181734,58.4577942 C-0.0800575688,58.8784791 0.0293479781,59.3431091 0.343373916,59.6566772 C0.658773056,59.9720764 1.12386095,60.0796509 1.54271462,59.9395752 L14.1353356,55.7418823 C18.5847984,58.4152221 24.4679772,60 30.0000511,60 C46.1732994,60 60.0000511,46.1933899 60.0000511,30 C60.0000511,13.8267517 46.1938988,0 30.0000511,0 Z M30.0000511,57.65625 C24.6931969,57.65625 19.0526329,56.0902405 14.911245,53.4672546 C14.6178184,53.2814026 14.2520653,53.2324219 13.9133201,53.3454895 L3.02495345,56.9750977 L6.65456157,46.086731 C6.76625591,45.7525635 6.72139513,45.3863525 6.53279649,45.0888061 C3.9098106,40.947876 2.3438011,35.3068542 2.3438011,30 C2.3438011,15.0086975 15.0087486,2.34375 30.0000511,2.34375 C44.9913536,2.34375 57.6563011,15.0086975 57.6563011,30 C57.6563011,44.9913025 44.9913536,57.65625 30.0000511,57.65625 Z" id="Shape"></path>
        </g>
    </g>
</svg>